<svg width="233" height="326" viewBox="0 0 233 326" fill="none"
    xmlns="http://www.w3.org/2000/svg">
    <path fill-rule="evenodd" clip-rule="evenodd" d="M34.1221 291.107C55.9701 312.955 85.6023 325.229 116.5 325.229C147.398 325.229 177.03 312.955 198.878 291.107C220.726 269.259 233 239.627 233 208.729C233 131.062 116.5 0 116.5 0C116.5 0 0 131.062 0 208.729C0 239.627 12.2741 269.259 34.1221 291.107ZM116.5 291.25C159.394 291.25 194.167 256.477 194.167 213.583C194.167 170.689 159.394 135.917 116.5 135.917C73.6059 135.917 38.8333 170.689 38.8333 213.583C38.8333 256.477 73.6059 291.25 116.5 291.25Z" fill="url(#paint0_linear_119_6)"/>
    <path d="M145.375 202.25H126.125V182.75C126.125 180.164 125.111 177.684 123.306 175.856C121.501 174.027 119.053 173 116.5 173C113.947 173 111.499 174.027 109.694 175.856C107.889 177.684 106.875 180.164 106.875 182.75L107.217 202.25H87.625C85.0723 202.25 82.6241 203.277 80.8191 205.106C79.0141 206.934 78 209.414 78 212C78 214.586 79.0141 217.066 80.8191 218.894C82.6241 220.723 85.0723 221.75 87.625 221.75L107.217 221.404L106.875 241.25C106.875 243.836 107.889 246.316 109.694 248.144C111.499 249.973 113.947 251 116.5 251C119.053 251 121.501 249.973 123.306 248.144C125.111 246.316 126.125 243.836 126.125 241.25V221.404L145.375 221.75C147.928 221.75 150.376 220.723 152.181 218.894C153.986 217.066 155 214.586 155 212C155 209.414 153.986 206.934 152.181 205.106C150.376 203.277 147.928 202.25 145.375 202.25Z" fill="white"/>
    <defs>
        <linearGradient id="paint0_linear_119_6" x1="116.5" y1="0" x2="116.5" y2="325.229" gradientUnits="userSpaceOnUse">
            <stop stop-color="#FF004D" />
            <stop offset="1" stop-color="#95003F"/>
        </linearGradient>
    </defs>
</svg>
