<svg xmlns="http://www.w3.org/2000/svg" width="260" height="260" viewBox="0 0 260 260" fill="none">
    <path d="M130 255C106.396 255 83.7582 245.565 67.0675 228.771C50.3768 211.976 41 189.198 41 165.448C41 105.746 130 5 130 5C130 5 219 105.746 219 165.448C219 189.198 209.623 211.976 192.933 228.771C176.242 245.565 153.604 255 130 255Z" fill="url(#paint0_linear_72_74)"/>
    <ellipse cx="130" cy="169" rx="59" ry="60" fill="white"/>
    <path d="M152.5 159.875H137.5V144.625C137.5 142.603 136.71 140.663 135.303 139.233C133.897 137.803 131.989 137 130 137C128.011 137 126.103 137.803 124.697 139.233C123.29 140.663 122.5 142.603 122.5 144.625L122.766 159.875H107.5C105.511 159.875 103.603 160.678 102.197 162.108C100.79 163.538 100 165.478 100 167.5C100 169.522 100.79 171.462 102.197 172.892C103.603 174.322 105.511 175.125 107.5 175.125L122.766 174.854L122.5 190.375C122.5 192.397 123.29 194.337 124.697 195.767C126.103 197.197 128.011 198 130 198C131.989 198 133.897 197.197 135.303 195.767C136.71 194.337 137.5 192.397 137.5 190.375V174.854L152.5 175.125C154.489 175.125 156.397 174.322 157.803 172.892C159.21 171.462 160 169.522 160 167.5C160 165.478 159.21 163.538 157.803 162.108C156.397 160.678 154.489 159.875 152.5 159.875Z" fill="#002238"/>
    <defs>
        <linearGradient id="paint0_linear_72_74" x1="130" y1="0" x2="130" y2="255" gradientUnits="userSpaceOnUse">
            <stop stop-color="#FF004D" />
            <stop offset="1" stop-color="#95003F"/>
        </linearGradient>
    </defs>
</svg>