<?xml version="1.0" standalone="no"?>
<!DOCTYPE svg PUBLIC "-//W3C//DTD SVG 20010904//EN"
 "http://www.w3.org/TR/2001/REC-SVG-20010904/DTD/svg10.dtd">
<svg version="1.0" xmlns="http://www.w3.org/2000/svg"
 width="260.000000pt" height="260.000000pt" viewBox="0 0 260.000000 260.000000"
 preserveAspectRatio="xMidYMid meet">
<metadata>
Created by potrace 1.14, written by Peter Selinger 2001-2017
</metadata>
<g transform="translate(0.000000,260.000000) scale(0.100000,-0.100000)"
fill="#000000" stroke="none">
<path d="M1288 2537 c-7 -8 -29 -33 -48 -57 -19 -24 -40 -48 -45 -54 -25 -26
-188 -240 -256 -336 -277 -388 -432 -680 -500 -945 -24 -95 -28 -125 -24 -220
2 -60 6 -121 9 -135 3 -14 9 -41 12 -60 4 -19 19 -66 35 -105 109 -274 333
-475 609 -547 115 -30 297 -32 425 -4 201 43 409 189 535 376 121 178 175 439
134 640 -47 230 -191 527 -418 863 -80 118 -185 267 -196 277 -3 3 -28 34 -54
69 -27 35 -84 105 -127 157 -64 78 -80 92 -91 81z"/>
</g>
</svg>
